<svg xmlns="http://www.w3.org/2000/svg" width="44.231" height="70.396"><defs><style>.cls-1{fill:none;stroke:#151515;stroke-linecap:round;stroke-linejoin:round;stroke-width:2px}</style></defs><g id="icon__feature_02_line" data-name="icon_ feature_02_line" transform="translate(1.414 1)"><g id="icon__feature_02_line_1" data-name="icon_ feature_02_line_1"><path id="사각형_2101" data-name="사각형 2101" class="cls-1" d="M12 0h15.959a12 12 0 0112 12v32.62a5 5 0 01-5 5H5a5 5 0 01-5-5V12A12 12 0 0112 0z" transform="translate(1.858 18.776)"/><path id="패스_109" data-name="패스 109" class="cls-1" d="M101 618.173H73.554a1.476 1.476 0 01-1.476-1.477v-16.824a1.476 1.476 0 011.476-1.477H101" transform="translate(-60.036 -563.292)"/></g><path id="icon__feature_02_line_2" data-name="icon_ feature_02_line_2" class="cls-1" d="M72.078 574.751a5.467 5.467 0 015.468-5.467H86.2a5.468 5.468 0 015.468 5.467" transform="translate(-60.036 -561.234)"/><g id="icon__feature_02_line_3" data-name="icon_ feature_02_line_3" transform="translate(18.696)"><path id="선_27" data-name="선 27" class="cls-1" d="M0 8.05V0"/><path id="선_28" data-name="선 28" class="cls-1" transform="translate(6.283)" d="M0 8.05V0"/></g><path id="icon__feature_02_line_4" data-name="icon_ feature_02_line_4" class="cls-1" d="M59.12 564.793c2.671-2.672 4.322-4.172 8.1-4.172h23.534" transform="translate(-59.12 -560.621)"/></g></svg>