<svg xmlns="http://www.w3.org/2000/svg" width="52.547" height="67.089"><g data-name="icon_ feature_04_line" fill="#f2f4f7"><path data-name="패스 5631" d="M26.274 3a1 1 0 01.648.238c.8.682 19.7 16.9 22.293 33.633a23.484 23.484 0 01.332 3.944 23.3 23.3 0 01-23.273 23.274A23.3 23.3 0 013 40.81a23.639 23.639 0 01.335-3.958C5.922 20.132 24.824 3.916 25.627 3.234a1 1 0 01.647-.238m0-3a4 4 0 00-2.591.953 96.33 96.33 0 00-10.841 11.172C5.73 20.721 1.536 28.892.375 36.398a26.324 26.324 0 00-.371 4.416 26.3 26.3 0 0026.274 26.275 26.3 26.3 0 0026.264-26.274 26.357 26.357 0 00-.375-4.449c-1.155-7.465-5.35-15.637-12.461-24.242A96.192 96.192 0 0028.859.952 4 4 0 0026.269 0z"/><path data-name="패스 5632" d="M26.275 63.089a22.273 22.273 0 0022.273-22.274 22.416 22.416 0 00-.321-3.79C45.665 20.465 26.275 4.001 26.275 4.001S6.884 20.465 4.322 37.025a22.454 22.454 0 00-.321 3.79 22.274 22.274 0 0022.274 22.274z" stroke="#151515" stroke-linecap="round" stroke-linejoin="round" stroke-width="2"/></g></svg>